<svg width="95" height="24" viewBox="0 0 95 24" fill="none" xmlns="http://www.w3.org/2000/svg">
<path fill-rule="evenodd" clip-rule="evenodd" d="M88.5938 9L95 12L88.5938 15L88.5938 12.5196L85.6818 12.5196L85.6818 11.4804L88.5938 11.4804L88.5938 9ZM78.2273 11.4804L81.9545 11.4804L81.9545 12.5196L78.2273 12.5196L78.2273 11.4804ZM70.7727 11.4804L74.5 11.4804L74.5 12.5196L70.7727 12.5196L70.7727 11.4804ZM63.3182 11.4804L67.0455 11.4804L67.0455 12.5196L63.3182 12.5196L63.3182 11.4804ZM55.8636 11.4804L59.5909 11.4804L59.5909 12.5196L55.8636 12.5196L55.8636 11.4804ZM48.4091 11.4804L52.1364 11.4804L52.1364 12.5196L48.4091 12.5196L48.4091 11.4804ZM40.9545 11.4804L44.6818 11.4804L44.6818 12.5196L40.9545 12.5196L40.9545 11.4804ZM33.5 11.4804L37.2273 11.4804L37.2273 12.5196L33.5 12.5196L33.5 11.4804ZM26.0454 11.4804L29.7727 11.4804L29.7727 12.5196L26.0454 12.5196L26.0454 11.4804ZM18.5909 11.4804L22.3182 11.4804L22.3182 12.5196L18.5909 12.5196L18.5909 11.4804ZM13 11.4804L14.8636 11.4804L14.8636 12.5196L13 12.5196L13 11.4804Z" fill="url(#paint0_linear_51_436)" fill-opacity="0.7"/>
<path d="M24 12C24 18.6274 18.6274 24 12 24C5.37258 24 0 18.6274 0 12C0 5.37258 5.37258 0 12 0C18.6274 0 24 5.37258 24 12Z" fill="#3B48D0"/>
<defs>
<linearGradient id="paint0_linear_51_436" x1="85.98" y1="14.4352" x2="85.6611" y2="6.18966" gradientUnits="userSpaceOnUse">
<stop stop-color="#15BFFD"/>
<stop offset="1" stop-color="#9C37FD"/>
</linearGradient>
</defs>
</svg>
